<svg xmlns="http://www.w3.org/2000/svg" version="1.1" xmlns:xlink="http://www.w3.org/1999/xlink" xmlns:svgjs="http://svgjs.dev/svgjs" width="1440" height="560" preserveAspectRatio="none" viewBox="0 0 1440 560"><g mask="url(&quot;#SvgjsMask1080&quot;)" fill="none"><path d="M-84.27 400.76L-84.27 400.76" stroke="rgba(0, 138, 0, 1)" stroke-width="1.5"></path><path d="M-84.27 400.76L-108.47 493.56" stroke="rgba(0, 138, 0, 1)" stroke-width="1.5"></path><path d="M-84.27 400.76L46.53 378.88" stroke="rgba(0, 138, 0, 1)" stroke-width="1.5"></path><path d="M-84.27 400.76L68.81 521.47" stroke="rgba(0, 138, 0, 1)" stroke-width="1.5"></path><path d="M-84.27 400.76L-45.39 646.88" stroke="rgba(0, 138, 0, 1)" stroke-width="1.5"></path><path d="M-84.27 400.76L187.74 342.12" stroke="rgba(0, 138, 0, 1)" stroke-width="1.5"></path><path d="M-84.27 400.76L107.79 654.6" stroke="rgba(0, 138, 0, 1)" stroke-width="1.5"></path><path d="M-108.47 493.56L-108.47 493.56" stroke="rgba(0, 138, 0, 1)" stroke-width="1.5"></path><path d="M-108.47 493.56L-45.39 646.88" stroke="rgba(0, 138, 0, 1)" stroke-width="1.5"></path><path d="M-108.47 493.56L68.81 521.47" stroke="rgba(0, 138, 0, 1)" stroke-width="1.5"></path><path d="M-45.39 646.88L-45.39 646.88" stroke="rgba(0, 138, 0, 1)" stroke-width="1.5"></path><path d="M-45.39 646.88L107.79 654.6" stroke="rgba(0, 138, 0, 1)" stroke-width="1.5"></path><path d="M46.53 378.88L46.53 378.88" stroke="rgba(0, 138, 0, 1)" stroke-width="1.5"></path><path d="M46.53 378.88L68.81 521.47" stroke="rgba(0, 138, 0, 1)" stroke-width="1.5"></path><path d="M46.53 378.88L187.74 342.12" stroke="rgba(0, 138, 0, 1)" stroke-width="1.5"></path><path d="M46.53 378.88L-108.47 493.56" stroke="rgba(0, 138, 0, 1)" stroke-width="1.5"></path><path d="M46.53 378.88L254.12 521.38" stroke="rgba(0, 138, 0, 1)" stroke-width="1.5"></path><path d="M68.81 521.47L68.81 521.47" stroke="rgba(0, 138, 0, 1)" stroke-width="1.5"></path><path d="M68.81 521.47L107.79 654.6" stroke="rgba(0, 138, 0, 1)" stroke-width="1.5"></path><path d="M68.81 521.47L-45.39 646.88" stroke="rgba(0, 138, 0, 1)" stroke-width="1.5"></path><path d="M107.79 654.6L107.79 654.6" stroke="rgba(0, 138, 0, 1)" stroke-width="1.5"></path><path d="M107.79 654.6L258.09 700.81" stroke="rgba(0, 138, 0, 1)" stroke-width="1.5"></path><path d="M107.79 654.6L254.12 521.38" stroke="rgba(0, 138, 0, 1)" stroke-width="1.5"></path><path d="M107.79 654.6L349.64 652.28" stroke="rgba(0, 138, 0, 1)" stroke-width="1.5"></path><path d="M107.79 654.6L-108.47 493.56" stroke="rgba(0, 138, 0, 1)" stroke-width="1.5"></path><path d="M187.74 342.12L187.74 342.12" stroke="rgba(0, 138, 0, 1)" stroke-width="1.5"></path><path d="M187.74 342.12L354.7 338.43" stroke="rgba(0, 138, 0, 1)" stroke-width="1.5"></path><path d="M187.74 342.12L254.12 521.38" stroke="rgba(0, 138, 0, 1)" stroke-width="1.5"></path><path d="M187.74 342.12L68.81 521.47" stroke="rgba(0, 138, 0, 1)" stroke-width="1.5"></path><path d="M187.74 342.12L388.8 529.42" stroke="rgba(0, 138, 0, 1)" stroke-width="1.5"></path><path d="M254.12 521.38L254.12 521.38" stroke="rgba(0, 138, 0, 1)" stroke-width="1.5"></path><path d="M254.12 521.38L388.8 529.42" stroke="rgba(0, 138, 0, 1)" stroke-width="1.5"></path><path d="M258.09 700.81L258.09 700.81" stroke="rgba(0, 138, 0, 1)" stroke-width="1.5"></path><path d="M258.09 700.81L349.64 652.28" stroke="rgba(0, 138, 0, 1)" stroke-width="1.5"></path><path d="M258.09 700.81L254.12 521.38" stroke="rgba(0, 138, 0, 1)" stroke-width="1.5"></path><path d="M258.09 700.81L388.8 529.42" stroke="rgba(0, 138, 0, 1)" stroke-width="1.5"></path><path d="M258.09 700.81L507.25 665.68" stroke="rgba(0, 138, 0, 1)" stroke-width="1.5"></path><path d="M258.09 700.81L68.81 521.47" stroke="rgba(0, 138, 0, 1)" stroke-width="1.5"></path><path d="M354.7 338.43L354.7 338.43" stroke="rgba(0, 138, 0, 1)" stroke-width="1.5"></path><path d="M354.7 338.43L388.8 529.42" stroke="rgba(0, 138, 0, 1)" stroke-width="1.5"></path><path d="M354.7 338.43L544.64 392.31" stroke="rgba(0, 138, 0, 1)" stroke-width="1.5"></path><path d="M354.7 338.43L254.12 521.38" stroke="rgba(0, 138, 0, 1)" stroke-width="1.5"></path><path d="M388.8 529.42L388.8 529.42" stroke="rgba(0, 138, 0, 1)" stroke-width="1.5"></path><path d="M388.8 529.42L496.92 543.46" stroke="rgba(0, 138, 0, 1)" stroke-width="1.5"></path><path d="M388.8 529.42L349.64 652.28" stroke="rgba(0, 138, 0, 1)" stroke-width="1.5"></path><path d="M388.8 529.42L507.25 665.68" stroke="rgba(0, 138, 0, 1)" stroke-width="1.5"></path><path d="M388.8 529.42L544.64 392.31" stroke="rgba(0, 138, 0, 1)" stroke-width="1.5"></path><path d="M349.64 652.28L349.64 652.28" stroke="rgba(0, 138, 0, 1)" stroke-width="1.5"></path><path d="M349.64 652.28L507.25 665.68" stroke="rgba(0, 138, 0, 1)" stroke-width="1.5"></path><path d="M349.64 652.28L254.12 521.38" stroke="rgba(0, 138, 0, 1)" stroke-width="1.5"></path><path d="M349.64 652.28L496.92 543.46" stroke="rgba(0, 138, 0, 1)" stroke-width="1.5"></path><path d="M544.64 392.31L544.64 392.31" stroke="rgba(0, 138, 0, 1)" stroke-width="1.5"></path><path d="M544.64 392.31L496.92 543.46" stroke="rgba(0, 138, 0, 1)" stroke-width="1.5"></path><path d="M544.64 392.31L711.96 385.68" stroke="rgba(0, 138, 0, 1)" stroke-width="1.5"></path><path d="M544.64 392.31L694.42 509.04" stroke="rgba(0, 138, 0, 1)" stroke-width="1.5"></path><path d="M496.92 543.46L496.92 543.46" stroke="rgba(0, 138, 0, 1)" stroke-width="1.5"></path><path d="M507.25 665.68L507.25 665.68" stroke="rgba(0, 138, 0, 1)" stroke-width="1.5"></path><path d="M507.25 665.68L496.92 543.46" stroke="rgba(0, 138, 0, 1)" stroke-width="1.5"></path><path d="M507.25 665.68L642.42 655.27" stroke="rgba(0, 138, 0, 1)" stroke-width="1.5"></path><path d="M507.25 665.68L694.42 509.04" stroke="rgba(0, 138, 0, 1)" stroke-width="1.5"></path><path d="M654.26 225.1L654.26 225.1" stroke="rgba(0, 138, 0, 1)" stroke-width="1.5"></path><path d="M654.26 225.1L816.85 249.43" stroke="rgba(0, 138, 0, 1)" stroke-width="1.5"></path><path d="M654.26 225.1L711.96 385.68" stroke="rgba(0, 138, 0, 1)" stroke-width="1.5"></path><path d="M654.26 225.1L544.64 392.31" stroke="rgba(0, 138, 0, 1)" stroke-width="1.5"></path><path d="M654.26 225.1L828 348.54" stroke="rgba(0, 138, 0, 1)" stroke-width="1.5"></path><path d="M654.26 225.1L694.42 509.04" stroke="rgba(0, 138, 0, 1)" stroke-width="1.5"></path><path d="M654.26 225.1L947.09 345.78" stroke="rgba(0, 138, 0, 1)" stroke-width="1.5"></path><path d="M711.96 385.68L711.96 385.68" stroke="rgba(0, 138, 0, 1)" stroke-width="1.5"></path><path d="M711.96 385.68L828 348.54" stroke="rgba(0, 138, 0, 1)" stroke-width="1.5"></path><path d="M711.96 385.68L694.42 509.04" stroke="rgba(0, 138, 0, 1)" stroke-width="1.5"></path><path d="M711.96 385.68L816.85 249.43" stroke="rgba(0, 138, 0, 1)" stroke-width="1.5"></path><path d="M694.42 509.04L694.42 509.04" stroke="rgba(0, 138, 0, 1)" stroke-width="1.5"></path><path d="M694.42 509.04L808.71 554.9" stroke="rgba(0, 138, 0, 1)" stroke-width="1.5"></path><path d="M694.42 509.04L642.42 655.27" stroke="rgba(0, 138, 0, 1)" stroke-width="1.5"></path><path d="M694.42 509.04L496.92 543.46" stroke="rgba(0, 138, 0, 1)" stroke-width="1.5"></path><path d="M694.42 509.04L828 348.54" stroke="rgba(0, 138, 0, 1)" stroke-width="1.5"></path><path d="M642.42 655.27L642.42 655.27" stroke="rgba(0, 138, 0, 1)" stroke-width="1.5"></path><path d="M816.85 249.43L816.85 249.43" stroke="rgba(0, 138, 0, 1)" stroke-width="1.5"></path><path d="M816.85 249.43L828 348.54" stroke="rgba(0, 138, 0, 1)" stroke-width="1.5"></path><path d="M816.85 249.43L947.09 345.78" stroke="rgba(0, 138, 0, 1)" stroke-width="1.5"></path><path d="M828 348.54L828 348.54" stroke="rgba(0, 138, 0, 1)" stroke-width="1.5"></path><path d="M828 348.54L947.09 345.78" stroke="rgba(0, 138, 0, 1)" stroke-width="1.5"></path><path d="M828 348.54L808.71 554.9" stroke="rgba(0, 138, 0, 1)" stroke-width="1.5"></path><path d="M828 348.54L1010.02 240.18" stroke="rgba(0, 138, 0, 1)" stroke-width="1.5"></path><path d="M808.71 554.9L808.71 554.9" stroke="rgba(0, 138, 0, 1)" stroke-width="1.5"></path><path d="M808.71 554.9L825.92 676.15" stroke="rgba(0, 138, 0, 1)" stroke-width="1.5"></path><path d="M825.92 676.15L825.92 676.15" stroke="rgba(0, 138, 0, 1)" stroke-width="1.5"></path><path d="M825.92 676.15L991.44 647.85" stroke="rgba(0, 138, 0, 1)" stroke-width="1.5"></path><path d="M1007.07 -38.59L1007.07 -38.59" stroke="rgba(0, 138, 0, 1)" stroke-width="1.5"></path><path d="M1007.07 -38.59L1112.94 -83.96" stroke="rgba(0, 138, 0, 1)" stroke-width="1.5"></path><path d="M1007.07 -38.59L982.52 112.29" stroke="rgba(0, 138, 0, 1)" stroke-width="1.5"></path><path d="M1007.07 -38.59L1120.62 74.12" stroke="rgba(0, 138, 0, 1)" stroke-width="1.5"></path><path d="M982.52 112.29L982.52 112.29" stroke="rgba(0, 138, 0, 1)" stroke-width="1.5"></path><path d="M982.52 112.29L1010.02 240.18" stroke="rgba(0, 138, 0, 1)" stroke-width="1.5"></path><path d="M982.52 112.29L1120.62 74.12" stroke="rgba(0, 138, 0, 1)" stroke-width="1.5"></path><path d="M1010.02 240.18L1010.02 240.18" stroke="rgba(0, 138, 0, 1)" stroke-width="1.5"></path><path d="M1010.02 240.18L947.09 345.78" stroke="rgba(0, 138, 0, 1)" stroke-width="1.5"></path><path d="M947.09 345.78L947.09 345.78" stroke="rgba(0, 138, 0, 1)" stroke-width="1.5"></path><path d="M947.09 345.78L996.64 488.78" stroke="rgba(0, 138, 0, 1)" stroke-width="1.5"></path><path d="M947.09 345.78L1120.38 368.71" stroke="rgba(0, 138, 0, 1)" stroke-width="1.5"></path><path d="M996.64 488.78L996.64 488.78" stroke="rgba(0, 138, 0, 1)" stroke-width="1.5"></path><path d="M996.64 488.78L1089.85 557.69" stroke="rgba(0, 138, 0, 1)" stroke-width="1.5"></path><path d="M996.64 488.78L991.44 647.85" stroke="rgba(0, 138, 0, 1)" stroke-width="1.5"></path><path d="M991.44 647.85L991.44 647.85" stroke="rgba(0, 138, 0, 1)" stroke-width="1.5"></path><path d="M991.44 647.85L1112.68 700.34" stroke="rgba(0, 138, 0, 1)" stroke-width="1.5"></path><path d="M991.44 647.85L1089.85 557.69" stroke="rgba(0, 138, 0, 1)" stroke-width="1.5"></path><path d="M1112.94 -83.96L1112.94 -83.96" stroke="rgba(0, 138, 0, 1)" stroke-width="1.5"></path><path d="M1120.62 74.12L1120.62 74.12" stroke="rgba(0, 138, 0, 1)" stroke-width="1.5"></path><path d="M1120.62 74.12L1146.46 193.19" stroke="rgba(0, 138, 0, 1)" stroke-width="1.5"></path><path d="M1120.62 74.12L1248.5 93.08" stroke="rgba(0, 138, 0, 1)" stroke-width="1.5"></path><path d="M1120.62 74.12L1112.94 -83.96" stroke="rgba(0, 138, 0, 1)" stroke-width="1.5"></path><path d="M1146.46 193.19L1146.46 193.19" stroke="rgba(0, 138, 0, 1)" stroke-width="1.5"></path><path d="M1146.46 193.19L1268.15 216.39" stroke="rgba(0, 138, 0, 1)" stroke-width="1.5"></path><path d="M1146.46 193.19L1248.5 93.08" stroke="rgba(0, 138, 0, 1)" stroke-width="1.5"></path><path d="M1146.46 193.19L1010.02 240.18" stroke="rgba(0, 138, 0, 1)" stroke-width="1.5"></path><path d="M1146.46 193.19L1120.38 368.71" stroke="rgba(0, 138, 0, 1)" stroke-width="1.5"></path><path d="M1146.46 193.19L982.52 112.29" stroke="rgba(0, 138, 0, 1)" stroke-width="1.5"></path><path d="M1120.38 368.71L1120.38 368.71" stroke="rgba(0, 138, 0, 1)" stroke-width="1.5"></path><path d="M1120.38 368.71L1251.36 351.42" stroke="rgba(0, 138, 0, 1)" stroke-width="1.5"></path><path d="M1120.38 368.71L1010.02 240.18" stroke="rgba(0, 138, 0, 1)" stroke-width="1.5"></path><path d="M1120.38 368.71L996.64 488.78" stroke="rgba(0, 138, 0, 1)" stroke-width="1.5"></path><path d="M1089.85 557.69L1089.85 557.69" stroke="rgba(0, 138, 0, 1)" stroke-width="1.5"></path><path d="M1089.85 557.69L1112.68 700.34" stroke="rgba(0, 138, 0, 1)" stroke-width="1.5"></path><path d="M1112.68 700.34L1112.68 700.34" stroke="rgba(0, 138, 0, 1)" stroke-width="1.5"></path><path d="M1112.68 700.34L1307.51 639.36" stroke="rgba(0, 138, 0, 1)" stroke-width="1.5"></path><path d="M1112.68 700.34L996.64 488.78" stroke="rgba(0, 138, 0, 1)" stroke-width="1.5"></path><path d="M1240.87 -100.88L1240.87 -100.88" stroke="rgba(0, 138, 0, 1)" stroke-width="1.5"></path><path d="M1240.87 -100.88L1112.94 -83.96" stroke="rgba(0, 138, 0, 1)" stroke-width="1.5"></path><path d="M1240.87 -100.88L1425.47 -101.3" stroke="rgba(0, 138, 0, 1)" stroke-width="1.5"></path><path d="M1248.5 93.08L1248.5 93.08" stroke="rgba(0, 138, 0, 1)" stroke-width="1.5"></path><path d="M1248.5 93.08L1268.15 216.39" stroke="rgba(0, 138, 0, 1)" stroke-width="1.5"></path><path d="M1268.15 216.39L1268.15 216.39" stroke="rgba(0, 138, 0, 1)" stroke-width="1.5"></path><path d="M1251.36 351.42L1251.36 351.42" stroke="rgba(0, 138, 0, 1)" stroke-width="1.5"></path><path d="M1260.11 491.59L1260.11 491.59" stroke="rgba(0, 138, 0, 1)" stroke-width="1.5"></path><path d="M1260.11 491.59L1251.36 351.42" stroke="rgba(0, 138, 0, 1)" stroke-width="1.5"></path><path d="M1260.11 491.59L1307.51 639.36" stroke="rgba(0, 138, 0, 1)" stroke-width="1.5"></path><path d="M1260.11 491.59L1089.85 557.69" stroke="rgba(0, 138, 0, 1)" stroke-width="1.5"></path><path d="M1260.11 491.59L1120.38 368.71" stroke="rgba(0, 138, 0, 1)" stroke-width="1.5"></path><path d="M1260.11 491.59L1416.77 351.32" stroke="rgba(0, 138, 0, 1)" stroke-width="1.5"></path><path d="M1260.11 491.59L1112.68 700.34" stroke="rgba(0, 138, 0, 1)" stroke-width="1.5"></path><path d="M1307.51 639.36L1307.51 639.36" stroke="rgba(0, 138, 0, 1)" stroke-width="1.5"></path><path d="M1307.51 639.36L1454.46 687.27" stroke="rgba(0, 138, 0, 1)" stroke-width="1.5"></path><path d="M1307.51 639.36L1089.85 557.69" stroke="rgba(0, 138, 0, 1)" stroke-width="1.5"></path><path d="M1307.51 639.36L1557.78 672.28" stroke="rgba(0, 138, 0, 1)" stroke-width="1.5"></path><path d="M1307.51 639.36L1251.36 351.42" stroke="rgba(0, 138, 0, 1)" stroke-width="1.5"></path><path d="M1425.47 -101.3L1425.47 -101.3" stroke="rgba(0, 138, 0, 1)" stroke-width="1.5"></path><path d="M1425.47 -101.3L1548.2 -111.75" stroke="rgba(0, 138, 0, 1)" stroke-width="1.5"></path><path d="M1425.47 -101.3L1450.16 41.21" stroke="rgba(0, 138, 0, 1)" stroke-width="1.5"></path><path d="M1450.16 41.21L1450.16 41.21" stroke="rgba(0, 138, 0, 1)" stroke-width="1.5"></path><path d="M1450.16 41.21L1573.79 67.44" stroke="rgba(0, 138, 0, 1)" stroke-width="1.5"></path><path d="M1425.39 260.21L1425.39 260.21" stroke="rgba(0, 138, 0, 1)" stroke-width="1.5"></path><path d="M1425.39 260.21L1416.77 351.32" stroke="rgba(0, 138, 0, 1)" stroke-width="1.5"></path><path d="M1425.39 260.21L1568.27 232.88" stroke="rgba(0, 138, 0, 1)" stroke-width="1.5"></path><path d="M1425.39 260.21L1540.39 365.94" stroke="rgba(0, 138, 0, 1)" stroke-width="1.5"></path><path d="M1416.77 351.32L1416.77 351.32" stroke="rgba(0, 138, 0, 1)" stroke-width="1.5"></path><path d="M1416.77 351.32L1540.39 365.94" stroke="rgba(0, 138, 0, 1)" stroke-width="1.5"></path><path d="M1416.77 351.32L1251.36 351.42" stroke="rgba(0, 138, 0, 1)" stroke-width="1.5"></path><path d="M1416.77 351.32L1568.27 232.88" stroke="rgba(0, 138, 0, 1)" stroke-width="1.5"></path><path d="M1416.77 351.32L1268.15 216.39" stroke="rgba(0, 138, 0, 1)" stroke-width="1.5"></path><path d="M1454.46 687.27L1454.46 687.27" stroke="rgba(0, 138, 0, 1)" stroke-width="1.5"></path><path d="M1454.46 687.27L1557.78 672.28" stroke="rgba(0, 138, 0, 1)" stroke-width="1.5"></path><path d="M1454.46 687.27L1610.95 489.46" stroke="rgba(0, 138, 0, 1)" stroke-width="1.5"></path><path d="M1454.46 687.27L1260.11 491.59" stroke="rgba(0, 138, 0, 1)" stroke-width="1.5"></path><path d="M1548.2 -111.75L1548.2 -111.75" stroke="rgba(0, 138, 0, 1)" stroke-width="1.5"></path><path d="M1548.2 -111.75L1573.79 67.44" stroke="rgba(0, 138, 0, 1)" stroke-width="1.5"></path><path d="M1548.2 -111.75L1450.16 41.21" stroke="rgba(0, 138, 0, 1)" stroke-width="1.5"></path><path d="M1548.2 -111.75L1240.87 -100.88" stroke="rgba(0, 138, 0, 1)" stroke-width="1.5"></path><path d="M1548.2 -111.75L1568.27 232.88" stroke="rgba(0, 138, 0, 1)" stroke-width="1.5"></path><path d="M1548.2 -111.75L1248.5 93.08" stroke="rgba(0, 138, 0, 1)" stroke-width="1.5"></path><path d="M1573.79 67.44L1573.79 67.44" stroke="rgba(0, 138, 0, 1)" stroke-width="1.5"></path><path d="M1573.79 67.44L1568.27 232.88" stroke="rgba(0, 138, 0, 1)" stroke-width="1.5"></path><path d="M1573.79 67.44L1425.47 -101.3" stroke="rgba(0, 138, 0, 1)" stroke-width="1.5"></path><path d="M1573.79 67.44L1425.39 260.21" stroke="rgba(0, 138, 0, 1)" stroke-width="1.5"></path><path d="M1568.27 232.88L1568.27 232.88" stroke="rgba(0, 138, 0, 1)" stroke-width="1.5"></path><path d="M1568.27 232.88L1540.39 365.94" stroke="rgba(0, 138, 0, 1)" stroke-width="1.5"></path><path d="M1568.27 232.88L1450.16 41.21" stroke="rgba(0, 138, 0, 1)" stroke-width="1.5"></path><path d="M1568.27 232.88L1610.95 489.46" stroke="rgba(0, 138, 0, 1)" stroke-width="1.5"></path><path d="M1540.39 365.94L1540.39 365.94" stroke="rgba(0, 138, 0, 1)" stroke-width="1.5"></path><path d="M1540.39 365.94L1610.95 489.46" stroke="rgba(0, 138, 0, 1)" stroke-width="1.5"></path><path d="M1610.95 489.46L1610.95 489.46" stroke="rgba(0, 138, 0, 1)" stroke-width="1.5"></path><path d="M1610.95 489.46L1557.78 672.28" stroke="rgba(0, 138, 0, 1)" stroke-width="1.5"></path><path d="M1557.78 672.28L1557.78 672.28" stroke="rgba(0, 138, 0, 1)" stroke-width="1.5"></path><circle r="5" cx="-84.27" cy="400.76" fill="rgba(0, 138, 0, 1)"></circle><circle r="5" cx="-108.47" cy="493.56" fill="rgba(0, 138, 0, 1)"></circle><circle r="5" cx="-45.39" cy="646.88" fill="rgba(0, 138, 0, 1)"></circle><circle r="5" cx="46.53" cy="378.88" fill="rgba(0, 138, 0, 1)"></circle><circle r="5" cx="68.81" cy="521.47" fill="rgba(0, 138, 0, 1)"></circle><circle r="5" cx="107.79" cy="654.6" fill="rgba(0, 138, 0, 1)"></circle><circle r="5" cx="187.74" cy="342.12" fill="rgba(0, 138, 0, 1)"></circle><circle r="5" cx="254.12" cy="521.38" fill="rgba(0, 138, 0, 1)"></circle><circle r="5" cx="258.09" cy="700.81" fill="rgba(0, 138, 0, 1)"></circle><circle r="5" cx="354.7" cy="338.43" fill="rgba(0, 138, 0, 1)"></circle><circle r="5" cx="388.8" cy="529.42" fill="rgba(0, 138, 0, 1)"></circle><circle r="5" cx="349.64" cy="652.28" fill="rgba(0, 138, 0, 1)"></circle><circle r="5" cx="544.64" cy="392.31" fill="rgba(0, 138, 0, 1)"></circle><circle r="5" cx="496.92" cy="543.46" fill="rgba(0, 138, 0, 1)"></circle><circle r="5" cx="507.25" cy="665.68" fill="rgba(0, 138, 0, 1)"></circle><circle r="5" cx="654.26" cy="225.1" fill="rgba(0, 138, 0, 1)"></circle><circle r="5" cx="711.96" cy="385.68" fill="rgba(0, 138, 0, 1)"></circle><circle r="5" cx="694.42" cy="509.04" fill="rgba(0, 138, 0, 1)"></circle><circle r="5" cx="642.42" cy="655.27" fill="rgba(0, 138, 0, 1)"></circle><circle r="5" cx="816.85" cy="249.43" fill="rgba(0, 138, 0, 1)"></circle><circle r="5" cx="828" cy="348.54" fill="rgba(0, 138, 0, 1)"></circle><circle r="5" cx="808.71" cy="554.9" fill="rgba(0, 138, 0, 1)"></circle><circle r="5" cx="825.92" cy="676.15" fill="rgba(0, 138, 0, 1)"></circle><circle r="5" cx="1007.07" cy="-38.59" fill="rgba(0, 138, 0, 1)"></circle><circle r="5" cx="982.52" cy="112.29" fill="rgba(0, 138, 0, 1)"></circle><circle r="5" cx="1010.02" cy="240.18" fill="rgba(0, 138, 0, 1)"></circle><circle r="5" cx="947.09" cy="345.78" fill="rgba(0, 138, 0, 1)"></circle><circle r="5" cx="996.64" cy="488.78" fill="rgba(0, 138, 0, 1)"></circle><circle r="5" cx="991.44" cy="647.85" fill="rgba(0, 138, 0, 1)"></circle><circle r="5" cx="1112.94" cy="-83.96" fill="rgba(0, 138, 0, 1)"></circle><circle r="5" cx="1120.62" cy="74.12" fill="rgba(0, 138, 0, 1)"></circle><circle r="5" cx="1146.46" cy="193.19" fill="rgba(0, 138, 0, 1)"></circle><circle r="5" cx="1120.38" cy="368.71" fill="rgba(0, 138, 0, 1)"></circle><circle r="5" cx="1089.85" cy="557.69" fill="rgba(0, 138, 0, 1)"></circle><circle r="5" cx="1112.68" cy="700.34" fill="rgba(0, 138, 0, 1)"></circle><circle r="5" cx="1240.87" cy="-100.88" fill="rgba(0, 138, 0, 1)"></circle><circle r="5" cx="1248.5" cy="93.08" fill="rgba(0, 138, 0, 1)"></circle><circle r="5" cx="1268.15" cy="216.39" fill="rgba(0, 138, 0, 1)"></circle><circle r="5" cx="1251.36" cy="351.42" fill="rgba(0, 138, 0, 1)"></circle><circle r="5" cx="1260.11" cy="491.59" fill="rgba(0, 138, 0, 1)"></circle><circle r="5" cx="1307.51" cy="639.36" fill="rgba(0, 138, 0, 1)"></circle><circle r="5" cx="1425.47" cy="-101.3" fill="rgba(0, 138, 0, 1)"></circle><circle r="5" cx="1450.16" cy="41.21" fill="rgba(0, 138, 0, 1)"></circle><circle r="5" cx="1425.39" cy="260.21" fill="rgba(0, 138, 0, 1)"></circle><circle r="5" cx="1416.77" cy="351.32" fill="rgba(0, 138, 0, 1)"></circle><circle r="5" cx="1454.46" cy="687.27" fill="rgba(0, 138, 0, 1)"></circle><circle r="5" cx="1548.2" cy="-111.75" fill="rgba(0, 138, 0, 1)"></circle><circle r="5" cx="1573.79" cy="67.44" fill="rgba(0, 138, 0, 1)"></circle><circle r="5" cx="1568.27" cy="232.88" fill="rgba(0, 138, 0, 1)"></circle><circle r="5" cx="1540.39" cy="365.94" fill="rgba(0, 138, 0, 1)"></circle><circle r="5" cx="1610.95" cy="489.46" fill="rgba(0, 138, 0, 1)"></circle><circle r="5" cx="1557.78" cy="672.28" fill="rgba(0, 138, 0, 1)"></circle><path d="M-82.88 705.52L-82.88 705.52" stroke="hsl(120, 100%, 35.2%)" stroke-width="1.5"></path><path d="M-82.88 705.52L-108.31 519.52" stroke="hsl(120, 100%, 35.2%)" stroke-width="1.5"></path><path d="M-82.88 705.52L107.21 695.03" stroke="hsl(120, 100%, 35.2%)" stroke-width="1.5"></path><path d="M-82.88 705.52L41.03 494.17" stroke="hsl(120, 100%, 35.2%)" stroke-width="1.5"></path><path d="M-82.88 705.52L215.46 698.68" stroke="hsl(120, 100%, 35.2%)" stroke-width="1.5"></path><path d="M-82.88 705.52L216.1 530.3" stroke="hsl(120, 100%, 35.2%)" stroke-width="1.5"></path><path d="M509.46 495.39L509.46 495.39" stroke="hsl(120, 100%, 35.2%)" stroke-width="1.5"></path><path d="M509.46 495.39L386.79 511.41" stroke="hsl(120, 100%, 35.2%)" stroke-width="1.5"></path><path d="M509.46 495.39L705.19 389.79" stroke="hsl(120, 100%, 35.2%)" stroke-width="1.5"></path><path d="M509.46 495.39L561.54 712.24" stroke="hsl(120, 100%, 35.2%)" stroke-width="1.5"></path><path d="M509.46 495.39L399.04 700.6" stroke="hsl(120, 100%, 35.2%)" stroke-width="1.5"></path><path d="M509.46 495.39L216.1 530.3" stroke="hsl(120, 100%, 35.2%)" stroke-width="1.5"></path><path d="M509.46 495.39L806.87 504.31" stroke="hsl(120, 100%, 35.2%)" stroke-width="1.5"></path><path d="M981.54 252.24L981.54 252.24" stroke="hsl(120, 100%, 35.2%)" stroke-width="1.5"></path><path d="M981.54 252.24L938.27 383.76" stroke="hsl(120, 100%, 35.2%)" stroke-width="1.5"></path><path d="M981.54 252.24L1093.93 352.48" stroke="hsl(120, 100%, 35.2%)" stroke-width="1.5"></path><path d="M981.54 252.24L1143.39 208.65" stroke="hsl(120, 100%, 35.2%)" stroke-width="1.5"></path><path d="M981.54 252.24L809.85 383.63" stroke="hsl(120, 100%, 35.2%)" stroke-width="1.5"></path><path d="M1131.11 492.54L1131.11 492.54" stroke="hsl(120, 100%, 35.2%)" stroke-width="1.5"></path><path d="M1131.11 492.54L1093.93 352.48" stroke="hsl(120, 100%, 35.2%)" stroke-width="1.5"></path><path d="M1131.11 492.54L1277.24 560.14" stroke="hsl(120, 100%, 35.2%)" stroke-width="1.5"></path><path d="M1131.11 492.54L969.1 494.79" stroke="hsl(120, 100%, 35.2%)" stroke-width="1.5"></path><path d="M1131.11 492.54L1306.5 372.73" stroke="hsl(120, 100%, 35.2%)" stroke-width="1.5"></path><path d="M1131.11 492.54L1124.35 705.04" stroke="hsl(120, 100%, 35.2%)" stroke-width="1.5"></path><path d="M1131.11 492.54L938.27 383.76" stroke="hsl(120, 100%, 35.2%)" stroke-width="1.5"></path><path d="M1291.92 661.75L1291.92 661.75" stroke="hsl(120, 100%, 35.2%)" stroke-width="1.5"></path><path d="M1291.92 661.75L1277.24 560.14" stroke="hsl(120, 100%, 35.2%)" stroke-width="1.5"></path><path d="M1291.92 661.75L1460.6 665.64" stroke="hsl(120, 100%, 35.2%)" stroke-width="1.5"></path><path d="M1568.94 409.64L1568.94 409.64" stroke="hsl(120, 100%, 35.2%)" stroke-width="1.5"></path><path d="M1568.94 409.64L1452.81 343.28" stroke="hsl(120, 100%, 35.2%)" stroke-width="1.5"></path><path d="M1568.94 409.64L1440.9 492.18" stroke="hsl(120, 100%, 35.2%)" stroke-width="1.5"></path><path d="M1568.94 409.64L1579.45 255.7" stroke="hsl(120, 100%, 35.2%)" stroke-width="1.5"></path><path d="M1568.94 409.64L1427.89 240.78" stroke="hsl(120, 100%, 35.2%)" stroke-width="1.5"></path><path d="M1568.94 409.64L1545.07 671.04" stroke="hsl(120, 100%, 35.2%)" stroke-width="1.5"></path><path d="M1545.07 671.04L1545.07 671.04" stroke="hsl(120, 100%, 35.2%)" stroke-width="1.5"></path><path d="M1545.07 671.04L1460.6 665.64" stroke="hsl(120, 100%, 35.2%)" stroke-width="1.5"></path><path d="M1545.07 671.04L1440.9 492.18" stroke="hsl(120, 100%, 35.2%)" stroke-width="1.5"></path><path d="M1545.07 671.04L1291.92 661.75" stroke="hsl(120, 100%, 35.2%)" stroke-width="1.5"></path><path d="M1545.07 671.04L1277.24 560.14" stroke="hsl(120, 100%, 35.2%)" stroke-width="1.5"></path><path d="M-108.31 519.52L-108.31 519.52" stroke="hsl(120, 100%, 35.2%)" stroke-width="1.5"></path><path d="M-108.31 519.52L41.03 494.17" stroke="hsl(120, 100%, 35.2%)" stroke-width="1.5"></path><path d="M-108.31 519.52L107.21 695.03" stroke="hsl(120, 100%, 35.2%)" stroke-width="1.5"></path><path d="M-108.31 519.52L216.1 530.3" stroke="hsl(120, 100%, 35.2%)" stroke-width="1.5"></path><path d="M-108.31 519.52L215.46 698.68" stroke="hsl(120, 100%, 35.2%)" stroke-width="1.5"></path><path d="M-108.31 519.52L386.79 511.41" stroke="hsl(120, 100%, 35.2%)" stroke-width="1.5"></path><path d="M41.03 494.17L41.03 494.17" stroke="hsl(120, 100%, 35.2%)" stroke-width="1.5"></path><path d="M41.03 494.17L216.1 530.3" stroke="hsl(120, 100%, 35.2%)" stroke-width="1.5"></path><path d="M41.03 494.17L107.21 695.03" stroke="hsl(120, 100%, 35.2%)" stroke-width="1.5"></path><path d="M41.03 494.17L215.46 698.68" stroke="hsl(120, 100%, 35.2%)" stroke-width="1.5"></path><path d="M41.03 494.17L386.79 511.41" stroke="hsl(120, 100%, 35.2%)" stroke-width="1.5"></path><path d="M107.21 695.03L107.21 695.03" stroke="hsl(120, 100%, 35.2%)" stroke-width="1.5"></path><path d="M107.21 695.03L215.46 698.68" stroke="hsl(120, 100%, 35.2%)" stroke-width="1.5"></path><path d="M216.1 530.3L216.1 530.3" stroke="hsl(120, 100%, 35.2%)" stroke-width="1.5"></path><path d="M216.1 530.3L215.46 698.68" stroke="hsl(120, 100%, 35.2%)" stroke-width="1.5"></path><path d="M215.46 698.68L215.46 698.68" stroke="hsl(120, 100%, 35.2%)" stroke-width="1.5"></path><path d="M215.46 698.68L399.04 700.6" stroke="hsl(120, 100%, 35.2%)" stroke-width="1.5"></path><path d="M215.46 698.68L386.79 511.41" stroke="hsl(120, 100%, 35.2%)" stroke-width="1.5"></path><path d="M386.79 511.41L386.79 511.41" stroke="hsl(120, 100%, 35.2%)" stroke-width="1.5"></path><path d="M386.79 511.41L216.1 530.3" stroke="hsl(120, 100%, 35.2%)" stroke-width="1.5"></path><path d="M399.04 700.6L399.04 700.6" stroke="hsl(120, 100%, 35.2%)" stroke-width="1.5"></path><path d="M399.04 700.6L561.54 712.24" stroke="hsl(120, 100%, 35.2%)" stroke-width="1.5"></path><path d="M399.04 700.6L386.79 511.41" stroke="hsl(120, 100%, 35.2%)" stroke-width="1.5"></path><path d="M561.54 712.24L561.54 712.24" stroke="hsl(120, 100%, 35.2%)" stroke-width="1.5"></path><path d="M561.54 712.24L802.34 655.04" stroke="hsl(120, 100%, 35.2%)" stroke-width="1.5"></path><path d="M561.54 712.24L386.79 511.41" stroke="hsl(120, 100%, 35.2%)" stroke-width="1.5"></path><path d="M561.54 712.24L806.87 504.31" stroke="hsl(120, 100%, 35.2%)" stroke-width="1.5"></path><path d="M561.54 712.24L215.46 698.68" stroke="hsl(120, 100%, 35.2%)" stroke-width="1.5"></path><path d="M705.19 389.79L705.19 389.79" stroke="hsl(120, 100%, 35.2%)" stroke-width="1.5"></path><path d="M705.19 389.79L809.85 383.63" stroke="hsl(120, 100%, 35.2%)" stroke-width="1.5"></path><path d="M705.19 389.79L806.87 504.31" stroke="hsl(120, 100%, 35.2%)" stroke-width="1.5"></path><path d="M705.19 389.79L938.27 383.76" stroke="hsl(120, 100%, 35.2%)" stroke-width="1.5"></path><path d="M809.85 383.63L809.85 383.63" stroke="hsl(120, 100%, 35.2%)" stroke-width="1.5"></path><path d="M809.85 383.63L806.87 504.31" stroke="hsl(120, 100%, 35.2%)" stroke-width="1.5"></path><path d="M809.85 383.63L938.27 383.76" stroke="hsl(120, 100%, 35.2%)" stroke-width="1.5"></path><path d="M806.87 504.31L806.87 504.31" stroke="hsl(120, 100%, 35.2%)" stroke-width="1.5"></path><path d="M806.87 504.31L802.34 655.04" stroke="hsl(120, 100%, 35.2%)" stroke-width="1.5"></path><path d="M802.34 655.04L802.34 655.04" stroke="hsl(120, 100%, 35.2%)" stroke-width="1.5"></path><path d="M802.34 655.04L969.1 494.79" stroke="hsl(120, 100%, 35.2%)" stroke-width="1.5"></path><path d="M802.34 655.04L809.85 383.63" stroke="hsl(120, 100%, 35.2%)" stroke-width="1.5"></path><path d="M938.27 383.76L938.27 383.76" stroke="hsl(120, 100%, 35.2%)" stroke-width="1.5"></path><path d="M938.27 383.76L969.1 494.79" stroke="hsl(120, 100%, 35.2%)" stroke-width="1.5"></path><path d="M969.1 494.79L969.1 494.79" stroke="hsl(120, 100%, 35.2%)" stroke-width="1.5"></path><path d="M969.1 494.79L806.87 504.31" stroke="hsl(120, 100%, 35.2%)" stroke-width="1.5"></path><path d="M969.1 494.79L1093.93 352.48" stroke="hsl(120, 100%, 35.2%)" stroke-width="1.5"></path><path d="M969.1 494.79L809.85 383.63" stroke="hsl(120, 100%, 35.2%)" stroke-width="1.5"></path><path d="M1157.59 71.23L1157.59 71.23" stroke="hsl(120, 100%, 35.2%)" stroke-width="1.5"></path><path d="M1157.59 71.23L1246.63 78.05" stroke="hsl(120, 100%, 35.2%)" stroke-width="1.5"></path><path d="M1157.59 71.23L1143.39 208.65" stroke="hsl(120, 100%, 35.2%)" stroke-width="1.5"></path><path d="M1157.59 71.23L1269.49 -57.92" stroke="hsl(120, 100%, 35.2%)" stroke-width="1.5"></path><path d="M1143.39 208.65L1143.39 208.65" stroke="hsl(120, 100%, 35.2%)" stroke-width="1.5"></path><path d="M1143.39 208.65L1093.93 352.48" stroke="hsl(120, 100%, 35.2%)" stroke-width="1.5"></path><path d="M1143.39 208.65L1308.56 196.91" stroke="hsl(120, 100%, 35.2%)" stroke-width="1.5"></path><path d="M1093.93 352.48L1093.93 352.48" stroke="hsl(120, 100%, 35.2%)" stroke-width="1.5"></path><path d="M1093.93 352.48L938.27 383.76" stroke="hsl(120, 100%, 35.2%)" stroke-width="1.5"></path><path d="M1124.35 705.04L1124.35 705.04" stroke="hsl(120, 100%, 35.2%)" stroke-width="1.5"></path><path d="M1124.35 705.04L1291.92 661.75" stroke="hsl(120, 100%, 35.2%)" stroke-width="1.5"></path><path d="M1269.49 -57.92L1269.49 -57.92" stroke="hsl(120, 100%, 35.2%)" stroke-width="1.5"></path><path d="M1269.49 -57.92L1246.63 78.05" stroke="hsl(120, 100%, 35.2%)" stroke-width="1.5"></path><path d="M1246.63 78.05L1246.63 78.05" stroke="hsl(120, 100%, 35.2%)" stroke-width="1.5"></path><path d="M1246.63 78.05L1308.56 196.91" stroke="hsl(120, 100%, 35.2%)" stroke-width="1.5"></path><path d="M1246.63 78.05L1411.98 86.18" stroke="hsl(120, 100%, 35.2%)" stroke-width="1.5"></path><path d="M1308.56 196.91L1308.56 196.91" stroke="hsl(120, 100%, 35.2%)" stroke-width="1.5"></path><path d="M1308.56 196.91L1427.89 240.78" stroke="hsl(120, 100%, 35.2%)" stroke-width="1.5"></path><path d="M1306.5 372.73L1306.5 372.73" stroke="hsl(120, 100%, 35.2%)" stroke-width="1.5"></path><path d="M1306.5 372.73L1452.81 343.28" stroke="hsl(120, 100%, 35.2%)" stroke-width="1.5"></path><path d="M1306.5 372.73L1308.56 196.91" stroke="hsl(120, 100%, 35.2%)" stroke-width="1.5"></path><path d="M1306.5 372.73L1427.89 240.78" stroke="hsl(120, 100%, 35.2%)" stroke-width="1.5"></path><path d="M1306.5 372.73L1440.9 492.18" stroke="hsl(120, 100%, 35.2%)" stroke-width="1.5"></path><path d="M1306.5 372.73L1277.24 560.14" stroke="hsl(120, 100%, 35.2%)" stroke-width="1.5"></path><path d="M1277.24 560.14L1277.24 560.14" stroke="hsl(120, 100%, 35.2%)" stroke-width="1.5"></path><path d="M1448.28 -81.2L1448.28 -81.2" stroke="hsl(120, 100%, 35.2%)" stroke-width="1.5"></path><path d="M1448.28 -81.2L1578.7 -69.12" stroke="hsl(120, 100%, 35.2%)" stroke-width="1.5"></path><path d="M1448.28 -81.2L1411.98 86.18" stroke="hsl(120, 100%, 35.2%)" stroke-width="1.5"></path><path d="M1411.98 86.18L1411.98 86.18" stroke="hsl(120, 100%, 35.2%)" stroke-width="1.5"></path><path d="M1411.98 86.18L1308.56 196.91" stroke="hsl(120, 100%, 35.2%)" stroke-width="1.5"></path><path d="M1411.98 86.18L1427.89 240.78" stroke="hsl(120, 100%, 35.2%)" stroke-width="1.5"></path><path d="M1427.89 240.78L1427.89 240.78" stroke="hsl(120, 100%, 35.2%)" stroke-width="1.5"></path><path d="M1427.89 240.78L1452.81 343.28" stroke="hsl(120, 100%, 35.2%)" stroke-width="1.5"></path><path d="M1452.81 343.28L1452.81 343.28" stroke="hsl(120, 100%, 35.2%)" stroke-width="1.5"></path><path d="M1440.9 492.18L1440.9 492.18" stroke="hsl(120, 100%, 35.2%)" stroke-width="1.5"></path><path d="M1440.9 492.18L1452.81 343.28" stroke="hsl(120, 100%, 35.2%)" stroke-width="1.5"></path><path d="M1440.9 492.18L1460.6 665.64" stroke="hsl(120, 100%, 35.2%)" stroke-width="1.5"></path><path d="M1440.9 492.18L1277.24 560.14" stroke="hsl(120, 100%, 35.2%)" stroke-width="1.5"></path><path d="M1460.6 665.64L1460.6 665.64" stroke="hsl(120, 100%, 35.2%)" stroke-width="1.5"></path><path d="M1578.7 -69.12L1578.7 -69.12" stroke="hsl(120, 100%, 35.2%)" stroke-width="1.5"></path><path d="M1578.7 -69.12L1590.53 102.75" stroke="hsl(120, 100%, 35.2%)" stroke-width="1.5"></path><path d="M1578.7 -69.12L1411.98 86.18" stroke="hsl(120, 100%, 35.2%)" stroke-width="1.5"></path><path d="M1578.7 -69.12L1269.49 -57.92" stroke="hsl(120, 100%, 35.2%)" stroke-width="1.5"></path><path d="M1578.7 -69.12L1579.45 255.7" stroke="hsl(120, 100%, 35.2%)" stroke-width="1.5"></path><path d="M1578.7 -69.12L1427.89 240.78" stroke="hsl(120, 100%, 35.2%)" stroke-width="1.5"></path><path d="M1590.53 102.75L1590.53 102.75" stroke="hsl(120, 100%, 35.2%)" stroke-width="1.5"></path><path d="M1590.53 102.75L1579.45 255.7" stroke="hsl(120, 100%, 35.2%)" stroke-width="1.5"></path><path d="M1579.45 255.7L1579.45 255.7" stroke="hsl(120, 100%, 35.2%)" stroke-width="1.5"></path><path d="M1579.45 255.7L1427.89 240.78" stroke="hsl(120, 100%, 35.2%)" stroke-width="1.5"></path><circle r="25" cx="-82.88" cy="705.52" fill="url(&quot;#SvgjsRadialGradient1081&quot;)"></circle><circle r="25" cx="509.46" cy="495.39" fill="url(&quot;#SvgjsRadialGradient1081&quot;)"></circle><circle r="25" cx="981.54" cy="252.24" fill="url(&quot;#SvgjsRadialGradient1081&quot;)"></circle><circle r="25" cx="1131.11" cy="492.54" fill="url(&quot;#SvgjsRadialGradient1081&quot;)"></circle><circle r="25" cx="1291.92" cy="661.75" fill="url(&quot;#SvgjsRadialGradient1081&quot;)"></circle><circle r="25" cx="1568.94" cy="409.64" fill="url(&quot;#SvgjsRadialGradient1081&quot;)"></circle><circle r="25" cx="1545.07" cy="671.04" fill="url(&quot;#SvgjsRadialGradient1081&quot;)"></circle><circle r="5" cx="-108.31" cy="519.52" fill="#80c580"></circle><circle r="5" cx="41.03" cy="494.17" fill="#80c580"></circle><circle r="5" cx="107.21" cy="695.03" fill="#80c580"></circle><circle r="5" cx="216.1" cy="530.3" fill="#80c580"></circle><circle r="5" cx="215.46" cy="698.68" fill="#80c580"></circle><circle r="5" cx="386.79" cy="511.41" fill="#80c580"></circle><circle r="5" cx="399.04" cy="700.6" fill="#80c580"></circle><circle r="5" cx="561.54" cy="712.24" fill="#80c580"></circle><circle r="5" cx="705.19" cy="389.79" fill="#80c580"></circle><circle r="5" cx="809.85" cy="383.63" fill="#80c580"></circle><circle r="5" cx="806.87" cy="504.31" fill="#80c580"></circle><circle r="5" cx="802.34" cy="655.04" fill="#80c580"></circle><circle r="5" cx="938.27" cy="383.76" fill="#80c580"></circle><circle r="5" cx="969.1" cy="494.79" fill="#80c580"></circle><circle r="5" cx="1157.59" cy="71.23" fill="#80c580"></circle><circle r="5" cx="1143.39" cy="208.65" fill="#80c580"></circle><circle r="5" cx="1093.93" cy="352.48" fill="#80c580"></circle><circle r="5" cx="1124.35" cy="705.04" fill="#80c580"></circle><circle r="5" cx="1269.49" cy="-57.92" fill="#80c580"></circle><circle r="5" cx="1246.63" cy="78.05" fill="#80c580"></circle><circle r="5" cx="1308.56" cy="196.91" fill="#80c580"></circle><circle r="5" cx="1306.5" cy="372.73" fill="#80c580"></circle><circle r="5" cx="1277.24" cy="560.14" fill="#80c580"></circle><circle r="5" cx="1448.28" cy="-81.2" fill="#80c580"></circle><circle r="5" cx="1411.98" cy="86.18" fill="#80c580"></circle><circle r="5" cx="1427.89" cy="240.78" fill="#80c580"></circle><circle r="5" cx="1452.81" cy="343.28" fill="#80c580"></circle><circle r="5" cx="1440.9" cy="492.18" fill="#80c580"></circle><circle r="5" cx="1460.6" cy="665.64" fill="#80c580"></circle><circle r="5" cx="1578.7" cy="-69.12" fill="#80c580"></circle><circle r="5" cx="1590.53" cy="102.75" fill="#80c580"></circle><circle r="5" cx="1579.45" cy="255.7" fill="#80c580"></circle></g><defs><mask id="SvgjsMask1080"><rect width="1440" height="560" fill="#ffffff"></rect></mask><radialGradient id="SvgjsRadialGradient1081"><stop stop-color="#ffffff" offset="0.1"></stop><stop stop-color="rgba(0, 138, 0, 1)" offset="0.2"></stop><stop stop-color="rgba(0, 138, 0, 0)" offset="1"></stop></radialGradient></defs></svg>